<svg id="Layer_1" data-name="Layer 1" xmlns="http://www.w3.org/2000/svg" viewBox="0 0 56.69 56.69"><defs><style>.cls-1{fill:#E7E3DD;}</style></defs><path class="cls-1" d="M15.9,26.06a.24.24,0,0,0,.26-.22,11.2,11.2,0,0,1,8.68-10,15.5,15.5,0,0,1,10,.37c5.08,2.23,6.22,7,6.44,9.69a.24.24,0,0,0,.24.22h0a.24.24,0,0,0,.22-.26c-.24-2.76-1.43-7.76-6.73-10.08a15.9,15.9,0,0,0-10.3-.39,11.67,11.67,0,0,0-9,10.45A.24.24,0,0,0,15.9,26.06Z"/><path class="cls-1" d="M42.55,21.79a.24.24,0,0,0-.32-.11.22.22,0,0,0-.11.31c.55,1.16,0,4.28-.4,4.49-.22,0-.92-.88-1.39-1.46a13.9,13.9,0,0,0-1.76-1.93.24.24,0,0,0-.33,0,.23.23,0,0,0,0,.33A12.43,12.43,0,0,1,40,25.32C40.8,26.37,41.3,27,41.72,27a.27.27,0,0,0,.13,0c.18-.05.33-.22.46-.52C42.75,25.41,43.05,22.83,42.55,21.79Z"/><path class="cls-1" d="M41.22,31a.23.23,0,0,0-.27.19C40.1,35.63,38,40.83,29.56,41.49c-2.76.21-7-1-9.07-3.4a26.1,26.1,0,0,1-4.35-7.46.24.24,0,0,0-.08-.09c.86.1,2.51,1.79,3,3.15a.24.24,0,0,0,.31.14.24.24,0,0,0,.13-.31C19,32,17.1,30.05,16,30.05h0c-.87,0-1.19,1.49-1.56,3.18-.15.68-.3,1.39-.49,2a.22.22,0,0,0,.15.29l.07,0a.26.26,0,0,0,.23-.17c.19-.62.35-1.34.5-2a8.35,8.35,0,0,1,.84-2.64.2.2,0,0,0,0,.11,26.55,26.55,0,0,0,4.43,7.59c2,2.3,5.95,3.59,8.81,3.59q.35,0,.66,0c8.89-.69,11-6.44,11.81-10.7A.24.24,0,0,0,41.22,31Z"/></svg>