<svg id="Layer_1" data-name="Layer 1" xmlns="http://www.w3.org/2000/svg" viewBox="0 0 56.69 56.69"><defs><style>.cls-1{fill:#E7E3DD;}</style></defs><path class="cls-1" d="M20.52,38.3c-.2-1-5-25.32-5.72-27.36a.24.24,0,0,0-.06-.09c-.89-.89-2.86-.37-4,.19-.73.37-.8.6-.77.76a.24.24,0,0,0,.27.2l.09-.05C12.43,19.86,15,33.48,16,39c0,0,0,0,0,0s0,0,0,.07l3,4.59,0,0a.26.26,0,0,0,.18.09h0l.51,0a.24.24,0,0,0,.21-.22l.51-5.17A.17.17,0,0,0,20.52,38.3Zm-4.05.55c-1-5.63-3.63-19.39-5.7-27.25h0a6.18,6.18,0,0,1,2.14-.72,2,2,0,0,1,1.47.28c.73,2.23,5.13,24.44,5.64,27l-1.53.31c-.31.06-.61.12-.91.2a2.31,2.31,0,0,1-1,.18Zm3.1,4.45H19.4l-2.64-4a2.72,2.72,0,0,0,.85-.16c.3-.08.6-.14.9-.2L20,38.65Z"/><path class="cls-1" d="M46.27,43.87c-1.66,1.39-3.87,1.3-5.87.89a14.11,14.11,0,0,1-3.17-.95,10.16,10.16,0,0,1-2.38-1.58,7.32,7.32,0,0,0-2.3-1.48,3.57,3.57,0,0,0-2.43.17c-1.58.64-2.6,2.16-3.89,3.21a7.54,7.54,0,0,1-2.47,1.65,2.55,2.55,0,0,1-1.59-.12,3,3,0,0,1-1.32-.88c-.18-.24-.59,0-.41.24h0a3.71,3.71,0,0,0,2.38,1.3,3.55,3.55,0,0,0,2.57-.9,22.23,22.23,0,0,0,2.1-1.76,17.66,17.66,0,0,1,2-1.81,3.64,3.64,0,0,1,2.42-.75,4.77,4.77,0,0,1,2.5,1.34,11.68,11.68,0,0,0,2.44,1.69,14.16,14.16,0,0,0,3.15,1,11,11,0,0,0,3.52.32,5.74,5.74,0,0,0,3.15-1.28C46.84,44,46.51,43.67,46.27,43.87Z"/></svg>