<svg id="Layer_1" data-name="Layer 1" xmlns="http://www.w3.org/2000/svg" viewBox="0 0 56.69 56.69"><defs><style>.cls-1{fill:#E7E3DD;}</style></defs><path class="cls-1" d="M44,29.43a.24.24,0,0,0-.06-.09C44.24,24,39.79,19,35.18,16.89a17.05,17.05,0,0,0-2.48-.8,21.75,21.75,0,0,0-4.16-.61V14a.25.25,0,0,0-.49,0v1.48h0c-.69,0-1.39,0-2.08,0s-1.43.14-2.13.26c-2,.28-8.83,2.06-11,13.15v0a.24.24,0,0,0,0,.33.24.24,0,0,0,.34,0c3.25-3,5.26-1.32,6.73-.09.56.47,1,.85,1.44.85h.05A5.37,5.37,0,0,0,23.47,29a10.08,10.08,0,0,1,4.66-2.06l.65,0a74.19,74.19,0,0,1,.58,12.41,3.84,3.84,0,0,1-1.58,2.82,2.14,2.14,0,0,1-1.75.28,1.37,1.37,0,0,1-.78-1,.24.24,0,1,0-.46.12,1.83,1.83,0,0,0,1.07,1.34,1.78,1.78,0,0,0,.68.12,3.07,3.07,0,0,0,1.5-.44,4.28,4.28,0,0,0,1.79-3.16,72.32,72.32,0,0,0-.57-12.48c2.8.09,5.92,1.18,7.13,2.59a.26.26,0,0,0,.19.08.21.21,0,0,0,.18-.09c1.68-2.09,3.89-1.29,4.84-.95l.19.07a5.39,5.39,0,0,1,1.26.82c.47.36.61.48.8.35A.35.35,0,0,0,44,29.43Zm-2-1.32-.19-.06c-.92-.34-3.33-1.2-5.19.89-1.43-1.43-4.54-2.49-7.37-2.55,0-.05,0-.1,0-.14a.24.24,0,0,0-.48.06v.08l-.62,0a10.51,10.51,0,0,0-4.89,2.14,5.31,5.31,0,0,1-1.87,1c-.26,0-.69-.34-1.15-.73-1.34-1.13-3.54-3-6.77-.4C15.68,18.16,22,16.49,23.94,16.23A20.73,20.73,0,0,1,26,16a21.59,21.59,0,0,1,6.56.59,17.67,17.67,0,0,1,2.4.77c4.39,2,8.63,6.68,8.44,11.74L43.35,29A6,6,0,0,0,42,28.11Z"/></svg>