<svg id="Layer_1" data-name="Layer 1" xmlns="http://www.w3.org/2000/svg" viewBox="0 0 56.69 56.69"><defs><style>.cls-1{fill:#E7E3DD;}</style></defs><path class="cls-1" d="M41.28,15.05c-4.44-.41-9.58-.69-14.45,1.1-3.19,1.19-7.71,3.16-10,6.58a10.43,10.43,0,0,0,0,11.05.22.22,0,0,0,.32.08.23.23,0,0,0,.08-.32,10,10,0,0,1,0-10.55c2.26-3.3,6.69-5.23,9.82-6.39,4.54-1.67,9.35-1.5,13.59-1.13-2.66,2-3.94,4.9-5.42,8.26a44,44,0,0,1-3.7,7.15C27.88,36.23,21.26,36,18.34,35.19a23.72,23.72,0,0,1,1.95-4.12c2-3.33,3.82-6.07,6.77-8.41a.24.24,0,0,0-.29-.38c-3,2.39-4.83,5.17-6.88,8.55a23.46,23.46,0,0,0-2,4.22,4.68,4.68,0,0,1-.72-.32.22.22,0,0,0-.32.07.24.24,0,0,0,.07.33,4.88,4.88,0,0,0,.79.38c-.38,1.06-.72,2.14-1.07,3.25-.29.93-.6,1.9-.93,2.87a.23.23,0,0,0,.14.3l.08,0a.22.22,0,0,0,.22-.16c.34-1,.65-1.95.94-2.89.35-1.1.69-2.18,1.08-3.24a12.55,12.55,0,0,0,3.52.47,11.93,11.93,0,0,0,10.17-5,43.94,43.94,0,0,0,3.74-7.23c1.55-3.51,2.88-6.55,5.79-8.43a.26.26,0,0,0,.1-.26A.23.23,0,0,0,41.28,15.05Z"/></svg>